<svg xmlns="http://www.w3.org/2000/svg" xmlns:xlink="http://www.w3.org/1999/xlink" id="Layer_1" width="300" height="150" viewBox="0 0 300 150"><defs><style>      .st0 {        fill: #fff;      }    </style></defs><g><path class="st0" d="M71.8,48c-.8-1.7-2.1-3.2-3.7-4.3-1.6-1.1-3.6-2-5.9-2.5-2.3-.5-5-.8-8-.8h-22.2v4.5l5.6,1.1v32.8l-5.6,1.1v4.5h20.1v-4.5l-7.5-1.1v-10.7h9.4c2.9,0,5.6-.3,8-.9,2.3-.6,4.4-1.4,6-2.6,1.6-1.1,2.9-2.6,3.7-4.3.9-1.7,1.3-3.8,1.3-6.1s-.4-4.5-1.3-6.2ZM65.4,57.4c-.4,1-1,1.8-1.9,2.6-.8.7-2,1.3-3.3,1.7-1.3.4-3,.6-4.9.6h-10.6v-15.8h10.6c1.9,0,3.5.2,4.9.6,1.4.4,2.5.9,3.3,1.6.9.7,1.5,1.5,1.9,2.5.4,1,.6,2,.6,3.2s-.2,2.1-.6,3.1Z"></path><path class="st0" d="M120,78.7l-18.7-38.4h-6.4l-18.5,38.6-5,1.1v4.5h17.2v-4.5l-5.4-.9,3.2-6.9h23.1l3.3,6.9-5.5.9v4.5h18v-4.5l-5.1-1.1v-.2ZM88.9,66.6l8.8-20.1,8.9,20.1h-17.7Z"></path><path class="st0" d="M163.9,65.4c-.9-.9-1.9-1.7-3-2.3-1.2-.7-2.4-1.2-3.8-1.7-1.3-.5-2.7-.9-4.2-1.2-1.4-.3-2.9-.7-4.3-1-1.6-.3-3.1-.7-4.5-1-1.4-.4-2.7-.8-3.8-1.3-1.1-.5-2.1-1.2-2.7-2-.7-.8-1-1.8-1-3s.3-2,1-2.8c.6-.8,1.5-1.5,2.6-2,1.1-.5,2.3-.9,3.7-1.2,1.4-.3,2.8-.4,4.4-.4,2.2,0,4.1.2,5.7.7,1.6.5,2.7.9,3.4,1.3l.4.3-.3.4c-.2.3-.4.6-.6,1-.1.3-.2.8-.2,1.3s0,1,.3,1.4c.2.5.4.9.8,1.3.4.4.9.7,1.4.9,1.1.5,2.8.5,4,0,.6-.3,1.1-.6,1.6-1.1.4-.5.8-1,1-1.6.2-.6.4-1.4.4-2.1,0-1.4-.5-2.7-1.4-3.8-1-1.2-2.3-2.3-4-3.1-1.7-.9-3.6-1.6-5.8-2.1-4.3-1-9.2-1-13.7,0-2.2.5-4.2,1.4-5.9,2.4-1.7,1-3.1,2.4-4.1,3.9-1,1.5-1.5,3.3-1.5,5.4s.2,3,.7,4.2c.5,1.2,1.1,2.2,1.9,3.1.8.9,1.8,1.6,2.9,2.2,1.1.6,2.3,1.2,3.6,1.6,1.3.4,2.6.8,4,1.1,1.4.3,2.8.6,4.2.9,1.7.3,3.2.7,4.7,1.1,1.5.4,2.9.9,4.1,1.4,1.2.6,2.2,1.3,2.9,2.2.7.9,1.1,2.1,1.1,3.5s-.2,2-.7,2.7c-.4.7-1,1.4-1.8,1.8-.7.5-1.6.9-2.5,1.1-.9.3-1.8.5-2.7.6-.9.1-1.9.2-2.7.2-2.1,0-3.6,0-5.3-.2-.9-.1-1.8-.3-2.6-.6-.8-.2-1.5-.5-2.1-.8-.6-.3-1.1-.6-1.4-1l-.2-.2v-.3c.3-.2.4-.5.4-.8,0-.2,0-.6,0-1.1s0-.9-.3-1.4c-.2-.5-.4-.9-.8-1.3-.4-.4-.8-.7-1.4-1s-1.2-.4-2-.4-1.2.1-1.8.3c-.6.2-1.1.5-1.5,1-.4.4-.8.9-1.1,1.6-.3.6-.4,1.3-.4,2.1s.2,1.9.7,2.8c.5.9,1.2,1.7,2.1,2.4.9.7,2,1.4,3.2,2,1.2.6,2.5,1.1,3.9,1.5,1.4.4,2.8.7,4.3.9,1.5.2,2.9.3,4.3.3,6.4,0,11.2-1.1,14.5-3.2,3.2-2.1,4.8-5.2,4.8-9.4s-.2-3.1-.7-4.4c-.5-1.2-1.2-2.3-2-3.2Z"></path><path class="st0" d="M266.3,53.6c-1.1-2.8-2.7-5.3-4.8-7.4-2.1-2.1-4.6-3.8-7.5-5-2.9-1.2-6.3-1.9-9.9-1.9s-4.7.3-6.8.9c-2.1.6-4.1,1.4-5.8,2.4-1.8,1-3.4,2.3-4.7,3.7-1.4,1.4-2.6,3.1-3.5,4.8-1,1.7-1.7,3.6-2.2,5.6-.5,2-.8,4-.8,6.2,0,3.2.6,6.2,1.7,9,1.1,2.8,2.8,5.2,4.8,7.2,2.1,2,4.6,3.7,7.5,4.8,2.9,1.2,6.2,1.7,9.8,1.7s6.9-.6,9.8-1.8c2.9-1.2,5.5-2.8,7.5-4.8,2.1-2,3.7-4.5,4.8-7.2,1.1-2.8,1.7-5.8,1.7-9s-.6-6.2-1.7-9.1ZM259.7,68.9c-.7,2-1.7,3.8-3.1,5.4-1.4,1.6-3.1,2.8-5.2,3.8-2.1.9-4.5,1.4-7.3,1.4s-5.3-.5-7.4-1.4c-2.1-.9-3.8-2.2-5.2-3.7-1.4-1.6-2.4-3.4-3-5.4-.7-2-1-4.1-1-6.3s.3-4.2,1-6.2c.7-2.1,1.7-3.9,3-5.5,1.4-1.6,3.1-2.9,5.2-3.9,2.1-1,4.6-1.5,7.4-1.5s5.3.5,7.4,1.5c2.1,1,3.8,2.3,5.2,3.9,1.4,1.6,2.4,3.5,3,5.5.6,2,1,4.1,1,6.2s-.3,4.3-1,6.3Z"></path><g><polygon class="st0" points="214.1 84.4 213.5 73.8 208.2 73.8 207.5 78.4 198.8 80 198.8 84.4 214.1 84.4"></polygon><polygon class="st0" points="186.3 78.9 186.3 65 203.9 65 203.9 59 186.3 59 186.3 46.4 206.8 46.4 207.6 51.4 212.9 51.4 213.4 40.4 173.7 40.4 173.7 45 179.3 46.1 179.3 78.8 173.7 80 173.7 84.4 193.8 84.4 193.8 80 186.3 78.9"></polygon></g></g><g><path class="st0" d="M61.6,97.2c-.6-.3-2.3-1-4-1s-2.2.7-2.2,2.2c0,3.5,7.3,3.1,7.3,7.9s-2.5,4.4-5.6,4.4-3.5-.5-3.9-.6v-1.8c.7.4,2.5,1.3,4.3,1.3s2.8-.6,2.8-2.6c0-3.6-7.3-3.3-7.3-8s1.9-3.9,5.1-3.9,3,.3,3.6.4v1.7Z"></path><path class="st0" d="M71.2,98.2c.1-.4.4-1.2.4-1.3,0-.9-.8-.9-1.7-1.1v-.5h4.2l5.5,15.1h-2.3l-1.7-4.7h-5.7l-1.7,4.7h-1.4l4.5-12.2ZM70.2,104.7h5l-2.6-6.6-2.4,6.6Z"></path><path class="st0" d="M85,98.2c0-2.1-.3-2-2.2-2.4v-.5h4.7l7.1,12.2h0v-12.2h1.4v15.1h-2.2l-7.4-12.8h0v12.8h-1.4v-12.2Z"></path><path class="st0" d="M113.2,98.4c0-2.2,0-2.2-2.1-2.6v-.5h10.7v3.3c0,0-.6,0-.6,0,0-1.8-1-2.3-2.4-2.3h-1.7c-1.1,0-1.4,0-1.4,1.2v4.5h2.7c1.6,0,1.7-1,1.8-1.7h.6v4.7h-.6c0-1.2-.5-1.9-1.8-1.9h-2.7v7.4h-2.5v-12Z"></path><path class="st0" d="M128,98.4c0-2.2,0-2.2-2.1-2.6v-.5h5.5c1.7,0,6.3,0,6.3,4s-1.7,3.4-3.4,3.7l4.1,7.4h-2.6l-4-7h-1.4v7h-2.5v-12ZM130.5,102.4h1.3c1.5,0,3.5-.4,3.5-2.9s-1.4-3.1-3.3-3.1-1.5.4-1.5,2v4Z"></path><path class="st0" d="M146.8,98.2c.1-.4.4-1.2.4-1.3,0-.9-.8-.9-1.7-1.1v-.5h4.2l5.5,15.1h-2.3l-1.7-4.7h-5.7l-1.7,4.7h-1.4l4.5-12.2ZM145.8,104.7h5l-2.6-6.6-2.4,6.6Z"></path><path class="st0" d="M160.6,98.2c0-2.1-.3-2-2.2-2.4v-.5h4.7l7.1,12.2h0v-12.2h1.4v15.1h-2.2l-7.4-12.8h0v12.8h-1.4v-12.2Z"></path><path class="st0" d="M188.7,109.9c-.6.2-2.4.8-4.6.8-4.6,0-6.4-2.9-6.4-8s1.2-7.6,6.2-7.6,4.9,1.5,5.1,3.3h-2.7c-.1-.7-.6-2.3-2.6-2.3-3.1,0-3.6,3.7-3.6,6s.3,7.5,4.6,7.5,3.3-.8,3.9-1.2v1.4Z"></path><path class="st0" d="M194.9,98.3c0-1.9,0-1.9-2.2-2.2v-.5l4.7-.5v15.3h-2.5v-12.1Z"></path><path class="st0" d="M212,97.2c-.6-.3-2.3-1-4-1s-2.2.7-2.2,2.2c0,3.5,7.3,3.1,7.3,7.9s-2.5,4.4-5.6,4.4-3.5-.5-3.9-.6v-1.8c.7.4,2.5,1.3,4.3,1.3s2.8-.6,2.8-2.6c0-3.6-7.3-3.3-7.3-8s1.9-3.9,5.1-3.9,3,.3,3.6.4v1.7Z"></path><path class="st0" d="M228.9,109.9c-.6.2-2.4.8-4.6.8-4.6,0-6.4-2.9-6.4-8s1.2-7.6,6.2-7.6,4.9,1.5,5.1,3.3h-2.7c-.1-.7-.6-2.3-2.6-2.3-3.1,0-3.6,3.7-3.6,6s.3,7.5,4.6,7.5,3.3-.8,3.9-1.2v1.4Z"></path><path class="st0" d="M234.1,103c0-4.8,1.3-7.9,6.2-7.9s6.1,3,6.1,7.9-1.4,7.7-6.1,7.7-6.2-2.9-6.2-7.7ZM240.3,109.7c3.5,0,3.6-3.8,3.6-6.7s-.2-6.8-3.6-6.8-3.7,3.8-3.7,6.8.3,6.7,3.7,6.7Z"></path></g></svg>